<svg
    className="absolute"
    height="100%"
    width="100%"
    viewBox="0 0 100 9999"
    preserveAspectRatio="none"
    fill="none"
    xmlns="http://www.w3.org/2000/svg"
  >
    <clipPath id="newsletter-clip-path">
      <path
        d="M501.06 7.7703H484.028L496.413 23.6994H443.612L437.578 34.5778H416.658L411.627 25.1409L425.638 0H402.028L396.312 11.6554H372.177L366.461 23.3109H320.514L331.629 3.88515H318.181L314.052 11.6554H276.325L268.703 0H263.225L249.253 23.3109H223.84L218.441 31.8582H203.906L193.109 13.598H183.52L177.804 23.3109H155.268L148.917 34.9663H111.787L106.333 23.8448L97.7711 37.686H76.5639L69.3081 25.4273H84.8186L87.4152 20.9798H60.2919L52.9944 32.2367L20.4385 33.4437L27.9817 18.999L22.6349 12.821H0V96H1600V22.1453H1587.83L1577.68 3.51617L1560.7 4.60938L1571.84 23.6994H1537.31L1532.54 12.821H1474.36L1464.67 25.0388H1476.61L1470.59 34.5778H1454.11L1449.03 23.6994H1437.26L1436.54 21.8928L1425.48 7.7703H1408.45L1420.84 23.6994H1368.03L1362 34.5778H1341.08L1336.05 25.1409L1350.06 0H1326.45L1320.73 11.6554H1296.6L1290.88 23.3109H1244.94L1256.05 3.88515H1242.6L1238.47 11.6554H1200.75L1193.13 0H1187.65L1173.67 23.3109H1148.26L1142.86 31.8582H1128.33L1117.53 13.598H1107.94L1102.23 23.3109H1079.69L1073.34 34.9663H1036.21L1030.75 23.8448L1022.19 37.686H1000.99L993.73 25.4273H1009.24L1011.84 20.9798H984.714L977.417 32.2367L944.861 33.4437L952.404 18.999L947.057 12.821H924.422V23.6994H895.94L890.943 12.821H876.452L872.455 23.6994H854.08L861.067 9.32436H841.492L837.995 14.6734L844.658 26.3185L838.964 35.7434H815.943L822.295 23.6994H798.966L794.52 31.8582H778.112L789.227 12.821H735.386L748.723 35.7434H728.17L722.454 23.6994H705.001L700.873 33.4123H687.228L680.877 22.1453H663.406L653.255 3.51617L636.277 4.60938L647.423 23.6994H612.884L608.121 12.821H549.942L540.249 25.0388H552.19L546.165 34.5778H529.691L524.61 23.6994H512.84L512.12 21.8928L501.06 7.7703Z"
        fill="black"
      />
      <path
        transform="translate(1600 0)"
        d="M501.06 7.7703H484.028L496.413 23.6994H443.612L437.578 34.5778H416.658L411.627 25.1409L425.638 0H402.028L396.312 11.6554H372.177L366.461 23.3109H320.514L331.629 3.88515H318.181L314.052 11.6554H276.325L268.703 0H263.225L249.253 23.3109H223.84L218.441 31.8582H203.906L193.109 13.598H183.52L177.804 23.3109H155.268L148.917 34.9663H111.787L106.333 23.8448L97.7711 37.686H76.5639L69.3081 25.4273H84.8186L87.4152 20.9798H60.2919L52.9944 32.2367L20.4385 33.4437L27.9817 18.999L22.6349 12.821H0V96H1600V22.1453H1587.83L1577.68 3.51617L1560.7 4.60938L1571.84 23.6994H1537.31L1532.54 12.821H1474.36L1464.67 25.0388H1476.61L1470.59 34.5778H1454.11L1449.03 23.6994H1437.26L1436.54 21.8928L1425.48 7.7703H1408.45L1420.84 23.6994H1368.03L1362 34.5778H1341.08L1336.05 25.1409L1350.06 0H1326.45L1320.73 11.6554H1296.6L1290.88 23.3109H1244.94L1256.05 3.88515H1242.6L1238.47 11.6554H1200.75L1193.13 0H1187.65L1173.67 23.3109H1148.26L1142.86 31.8582H1128.33L1117.53 13.598H1107.94L1102.23 23.3109H1079.69L1073.34 34.9663H1036.21L1030.75 23.8448L1022.19 37.686H1000.99L993.73 25.4273H1009.24L1011.84 20.9798H984.714L977.417 32.2367L944.861 33.4437L952.404 18.999L947.057 12.821H924.422V23.6994H895.94L890.943 12.821H876.452L872.455 23.6994H854.08L861.067 9.32436H841.492L837.995 14.6734L844.658 26.3185L838.964 35.7434H815.943L822.295 23.6994H798.966L794.52 31.8582H778.112L789.227 12.821H735.386L748.723 35.7434H728.17L722.454 23.6994H705.001L700.873 33.4123H687.228L680.877 22.1453H663.406L653.255 3.51617L636.277 4.60938L647.423 23.6994H612.884L608.121 12.821H549.942L540.249 25.0388H552.19L546.165 34.5778H529.691L524.61 23.6994H512.84L512.12 21.8928L501.06 7.7703Z"
        fill="black"
      />
      <path
        transform="translate(3200 0)"
        d="M501.06 7.7703H484.028L496.413 23.6994H443.612L437.578 34.5778H416.658L411.627 25.1409L425.638 0H402.028L396.312 11.6554H372.177L366.461 23.3109H320.514L331.629 3.88515H318.181L314.052 11.6554H276.325L268.703 0H263.225L249.253 23.3109H223.84L218.441 31.8582H203.906L193.109 13.598H183.52L177.804 23.3109H155.268L148.917 34.9663H111.787L106.333 23.8448L97.7711 37.686H76.5639L69.3081 25.4273H84.8186L87.4152 20.9798H60.2919L52.9944 32.2367L20.4385 33.4437L27.9817 18.999L22.6349 12.821H0V96H1600V22.1453H1587.83L1577.68 3.51617L1560.7 4.60938L1571.84 23.6994H1537.31L1532.54 12.821H1474.36L1464.67 25.0388H1476.61L1470.59 34.5778H1454.11L1449.03 23.6994H1437.26L1436.54 21.8928L1425.48 7.7703H1408.45L1420.84 23.6994H1368.03L1362 34.5778H1341.08L1336.05 25.1409L1350.06 0H1326.45L1320.73 11.6554H1296.6L1290.88 23.3109H1244.94L1256.05 3.88515H1242.6L1238.47 11.6554H1200.75L1193.13 0H1187.65L1173.67 23.3109H1148.26L1142.86 31.8582H1128.33L1117.53 13.598H1107.94L1102.23 23.3109H1079.69L1073.34 34.9663H1036.21L1030.75 23.8448L1022.19 37.686H1000.99L993.73 25.4273H1009.24L1011.84 20.9798H984.714L977.417 32.2367L944.861 33.4437L952.404 18.999L947.057 12.821H924.422V23.6994H895.94L890.943 12.821H876.452L872.455 23.6994H854.08L861.067 9.32436H841.492L837.995 14.6734L844.658 26.3185L838.964 35.7434H815.943L822.295 23.6994H798.966L794.52 31.8582H778.112L789.227 12.821H735.386L748.723 35.7434H728.17L722.454 23.6994H705.001L700.873 33.4123H687.228L680.877 22.1453H663.406L653.255 3.51617L636.277 4.60938L647.423 23.6994H612.884L608.121 12.821H549.942L540.249 25.0388H552.19L546.165 34.5778H529.691L524.61 23.6994H512.84L512.12 21.8928L501.06 7.7703Z"
        fill="black"
      />
      <path
        transform="translate(4800 0)"
        d="M501.06 7.7703H484.028L496.413 23.6994H443.612L437.578 34.5778H416.658L411.627 25.1409L425.638 0H402.028L396.312 11.6554H372.177L366.461 23.3109H320.514L331.629 3.88515H318.181L314.052 11.6554H276.325L268.703 0H263.225L249.253 23.3109H223.84L218.441 31.8582H203.906L193.109 13.598H183.52L177.804 23.3109H155.268L148.917 34.9663H111.787L106.333 23.8448L97.7711 37.686H76.5639L69.3081 25.4273H84.8186L87.4152 20.9798H60.2919L52.9944 32.2367L20.4385 33.4437L27.9817 18.999L22.6349 12.821H0V96H1600V22.1453H1587.83L1577.68 3.51617L1560.7 4.60938L1571.84 23.6994H1537.31L1532.54 12.821H1474.36L1464.67 25.0388H1476.61L1470.59 34.5778H1454.11L1449.03 23.6994H1437.26L1436.54 21.8928L1425.48 7.7703H1408.45L1420.84 23.6994H1368.03L1362 34.5778H1341.08L1336.05 25.1409L1350.06 0H1326.45L1320.73 11.6554H1296.6L1290.88 23.3109H1244.94L1256.05 3.88515H1242.6L1238.47 11.6554H1200.75L1193.13 0H1187.65L1173.67 23.3109H1148.26L1142.86 31.8582H1128.33L1117.53 13.598H1107.94L1102.23 23.3109H1079.69L1073.34 34.9663H1036.21L1030.75 23.8448L1022.19 37.686H1000.99L993.73 25.4273H1009.24L1011.84 20.9798H984.714L977.417 32.2367L944.861 33.4437L952.404 18.999L947.057 12.821H924.422V23.6994H895.94L890.943 12.821H876.452L872.455 23.6994H854.08L861.067 9.32436H841.492L837.995 14.6734L844.658 26.3185L838.964 35.7434H815.943L822.295 23.6994H798.966L794.52 31.8582H778.112L789.227 12.821H735.386L748.723 35.7434H728.17L722.454 23.6994H705.001L700.873 33.4123H687.228L680.877 22.1453H663.406L653.255 3.51617L636.277 4.60938L647.423 23.6994H612.884L608.121 12.821H549.942L540.249 25.0388H552.19L546.165 34.5778H529.691L524.61 23.6994H512.84L512.12 21.8928L501.06 7.7703Z"
        fill="black"
      />
      <rect y="96" height="100%" width="100vw" fill="black" />
    </clipPath>
  </svg>