<svg width="44" height="44" viewBox="0 0 44 44" fill="none" xmlns="http://www.w3.org/2000/svg">
<path d="M39.1114 3.19827e-05H0.00182476C0.00182476 3.19827e-05 0.00227524 4.02451 0.00227524 4.88892V39.1111C0.00227524 40.4077 -0.00187917 36.6666 0.00103944 44C6.11526 44 3.59436 44 4.89091 44H39.1114C40.4079 44 34.2223 44 44 44C44 36.6666 44 40.4077 44 39.1111C44 31.0405 43.9995 7.33333 43.9995 0.000151894C42.7774 -9.32463e-05 40.4079 3.19827e-05 39.1114 3.19827e-05ZM39.1114 39.1111H4.89091V4.88892H39.1114V39.1111ZM34.2227 13.2L25.4232 22L34.2227 30.8L30.8007 34.2222L22.0011 25.4222L13.2016 34.2222L9.77955 30.8L18.5791 22L9.77955 13.2L13.2016 9.7778L22.0011 18.5778L30.8007 9.7778L34.2227 13.2Z" fill="white"/>
</svg>
