<svg width="40" height="40" viewBox="0 0 40 40" fill="none" xmlns="http://www.w3.org/2000/svg">
<path d="M20 36C17.76 36 15.6667 35.58 13.72 34.74C11.7733 33.9 10.08 32.76 8.64 31.32C7.2 29.88 6.06667 28.18 5.24 26.22C4.41333 24.26 4 22.16 4 19.92C4 17.68 4.41333 15.5933 5.24 13.66C6.06667 11.7267 7.2 10.04 8.64 8.6C10.08 7.16 11.7733 6.03333 13.72 5.22C15.6667 4.40667 17.76 4 20 4C22.24 4 24.3333 4.40667 26.28 5.22C28.2267 6.03333 29.92 7.16 31.36 8.6C32.8 10.04 33.9333 11.7267 34.76 13.66C35.5867 15.5933 36 17.68 36 19.92C36 22.16 35.5867 24.26 34.76 26.22C33.9333 28.18 32.8 29.88 31.36 31.32C29.92 32.76 28.2267 33.9 26.28 34.74C24.3333 35.58 22.24 36 20 36ZM20 33.68C20.9333 32.72 21.7133 31.62 22.34 30.38C22.9667 29.14 23.48 27.6667 23.88 25.96H16.16C16.5333 27.56 17.0333 29 17.66 30.28C18.2867 31.56 19.0667 32.6933 20 33.68ZM16.6 33.2C15.9333 32.1867 15.36 31.0933 14.88 29.92C14.4 28.7467 14 27.4267 13.68 25.96H7.68C8.69333 27.8533 9.86667 29.34 11.2 30.42C12.5333 31.5 14.3333 32.4267 16.6 33.2ZM23.44 33.16C25.36 32.5467 27.0867 31.6267 28.62 30.4C30.1533 29.1733 31.3867 27.6933 32.32 25.96H26.36C26.0133 27.4 25.6067 28.7067 25.14 29.88C24.6733 31.0533 24.1067 32.1467 23.44 33.16ZM6.88 23.56H13.24C13.16 22.84 13.1133 22.1933 13.1 21.62C13.0867 21.0467 13.08 20.48 13.08 19.92C13.08 19.2533 13.0933 18.66 13.12 18.14C13.1467 17.62 13.2 17.04 13.28 16.4H6.88C6.69333 17.04 6.56667 17.6133 6.5 18.12C6.43333 18.6267 6.4 19.2267 6.4 19.92C6.4 20.6133 6.43333 21.2333 6.5 21.78C6.56667 22.3267 6.69333 22.92 6.88 23.56ZM15.72 23.56H24.32C24.4267 22.7333 24.4933 22.06 24.52 21.54C24.5467 21.02 24.56 20.48 24.56 19.92C24.56 19.3867 24.5467 18.8733 24.52 18.38C24.4933 17.8867 24.4267 17.2267 24.32 16.4H15.72C15.6133 17.2267 15.5467 17.8867 15.52 18.38C15.4933 18.8733 15.48 19.3867 15.48 19.92C15.48 20.48 15.4933 21.02 15.52 21.54C15.5467 22.06 15.6133 22.7333 15.72 23.56ZM26.72 23.56H33.12C33.3067 22.92 33.4333 22.3267 33.5 21.78C33.5667 21.2333 33.6 20.6133 33.6 19.92C33.6 19.2267 33.5667 18.6267 33.5 18.12C33.4333 17.6133 33.3067 17.04 33.12 16.4H26.76C26.84 17.3333 26.8933 18.0467 26.92 18.54C26.9467 19.0333 26.96 19.4933 26.96 19.92C26.96 20.5067 26.94 21.06 26.9 21.58C26.86 22.1 26.8 22.76 26.72 23.56ZM26.32 14H32.32C31.44 12.16 30.2333 10.6267 28.7 9.4C27.1667 8.17333 25.4 7.30667 23.4 6.8C24.0667 7.78667 24.6333 8.85333 25.1 10C25.5667 11.1467 25.9733 12.48 26.32 14ZM16.16 14H23.92C23.6267 12.5867 23.1333 11.22 22.44 9.9C21.7467 8.58 20.9333 7.41333 20 6.4C19.1467 7.12 18.4267 8.06667 17.84 9.24C17.2533 10.4133 16.6933 12 16.16 14ZM7.68 14H13.72C14.0133 12.56 14.3867 11.2733 14.84 10.14C15.2933 9.00667 15.8667 7.90667 16.56 6.84C14.56 7.34667 12.8133 8.2 11.32 9.4C9.82667 10.6 8.61333 12.1333 7.68 14Z" fill="white"/>
</svg>
