<svg width="24" height="24" viewBox="0 0 24 24" fill="none" xmlns="http://www.w3.org/2000/svg">
<path d="M9 8.79V15.21C9 15.69 9.21 16.04 9.63 16.26C10.05 16.48 10.46 16.46 10.86 16.2L15.84 13.02C16.22 12.8 16.41 12.46 16.41 12C16.41 11.54 16.22 11.2 15.84 10.98L10.86 7.8C10.46 7.54 10.05 7.52 9.63 7.74C9.21 7.96 9 8.31 9 8.79ZM12 24C10.34 24 8.78 23.6848 7.32 23.0544C5.86 22.4248 4.59 21.57 3.51 20.49C2.43 19.41 1.5752 18.14 0.9456 16.68C0.3152 15.22 0 13.66 0 12C0 10.34 0.3152 8.78 0.9456 7.32C1.5752 5.86 2.43 4.59 3.51 3.51C4.59 2.43 5.86 1.5748 7.32 0.9444C8.78 0.3148 10.34 0 12 0C13.66 0 15.22 0.3148 16.68 0.9444C18.14 1.5748 19.41 2.43 20.49 3.51C21.57 4.59 22.4248 5.86 23.0544 7.32C23.6848 8.78 24 10.34 24 12C24 13.66 23.6848 15.22 23.0544 16.68C22.4248 18.14 21.57 19.41 20.49 20.49C19.41 21.57 18.14 22.4248 16.68 23.0544C15.22 23.6848 13.66 24 12 24ZM12 21.6C14.66 21.6 16.9252 20.6652 18.7956 18.7956C20.6652 16.9252 21.6 14.66 21.6 12C21.6 9.34 20.6652 7.0748 18.7956 5.2044C16.9252 3.3348 14.66 2.4 12 2.4C9.34 2.4 7.0752 3.3348 5.2056 5.2044C3.3352 7.0748 2.4 9.34 2.4 12C2.4 14.66 3.3352 16.9252 5.2056 18.7956C7.0752 20.6652 9.34 21.6 12 21.6Z" fill="white"/>
</svg>
