<svg width="25" height="24" viewBox="0 0 25 24" fill="none" xmlns="http://www.w3.org/2000/svg">
<path d="M8.52096 24.0008C9.43431 24.0008 10.1747 23.2333 10.1747 22.2865C10.1747 21.3398 9.43431 20.5723 8.52096 20.5723C7.60761 20.5723 6.86719 21.3398 6.86719 22.2865C6.86719 23.2333 7.60761 24.0008 8.52096 24.0008Z" fill="white"/>
<path d="M20.0991 24.0008C21.0124 24.0008 21.7529 23.2333 21.7529 22.2865C21.7529 21.3398 21.0124 20.5723 20.0991 20.5723C19.1857 20.5723 18.4453 21.3398 18.4453 22.2865C18.4453 23.2333 19.1857 24.0008 20.0991 24.0008Z" fill="white"/>
<path d="M23.4028 4.28585H5.06247L4.38443 0.685883C4.34577 0.489362 4.24185 0.313117 4.09077 0.187825C3.93968 0.0625336 3.75099 -0.00386953 3.55754 0.000174375H0.25V1.71444H2.8795L6.0382 18.1714C6.07686 18.368 6.18077 18.5442 6.33186 18.6695C6.48295 18.7948 6.67164 18.8612 6.86509 18.8572H21.749V17.1429H7.54313L6.86509 13.7143H21.749C21.9402 13.7192 22.127 13.6552 22.2778 13.5333C22.4286 13.4114 22.5339 13.2391 22.5759 13.0458L24.2297 5.33156C24.2574 5.20438 24.2568 5.07232 24.2278 4.94544C24.1988 4.81856 24.1424 4.7002 24.0626 4.59937C23.9829 4.49853 23.882 4.41788 23.7677 4.36355C23.6533 4.30922 23.5285 4.28265 23.4028 4.28585ZM21.0875 12.0001H6.55087L5.39323 6.00012H22.3692L21.0875 12.0001Z" fill="white"/>
</svg>
