<svg width="41" height="41" viewBox="0 0 41 41" fill="none" xmlns="http://www.w3.org/2000/svg">
<path d="M29.6074 21.914C29.7937 21.7287 29.9416 21.5084 30.0426 21.2657C30.1435 21.023 30.1954 20.7628 30.1954 20.5C30.1954 20.2372 30.1435 19.977 30.0426 19.7343C29.9416 19.4916 29.7937 19.2713 29.6074 19.086L21.1214 10.6C20.7442 10.2357 20.239 10.0341 19.7146 10.0387C19.1902 10.0432 18.6885 10.2535 18.3177 10.6244C17.9469 10.9952 17.7366 11.4968 17.732 12.0212C17.7275 12.5456 17.929 13.0508 18.2934 13.428L23.3654 18.5H12.1934C11.6629 18.5 11.1542 18.7107 10.7791 19.0858C10.4041 19.4609 10.1934 19.9696 10.1934 20.5C10.1934 21.0304 10.4041 21.5391 10.7791 21.9142C11.1542 22.2893 11.6629 22.5 12.1934 22.5H23.3654L18.2934 27.572C17.929 27.9492 17.7275 28.4544 17.732 28.9788C17.7366 29.5032 17.9469 30.0048 18.3177 30.3756C18.6885 30.7465 19.1902 30.9568 19.7146 30.9613C20.239 30.9659 20.7442 30.7643 21.1214 30.4L29.6074 21.914ZM8.19336 0.5H32.1934C34.3151 0.5 36.3499 1.34285 37.8502 2.84315C39.3505 4.34344 40.1934 6.37827 40.1934 8.5V32.5C40.1934 34.6217 39.3505 36.6566 37.8502 38.1569C36.3499 39.6571 34.3151 40.5 32.1934 40.5H8.19336C6.07163 40.5 4.0368 39.6571 2.53651 38.1569C1.03621 36.6566 0.193359 34.6217 0.193359 32.5V8.5C0.193359 6.37827 1.03621 4.34344 2.53651 2.84315C4.0368 1.34285 6.07163 0.5 8.19336 0.5Z" fill="#FB5600"/>
</svg>
