<svg width="44" height="44" viewBox="0 0 44 44" fill="none" xmlns="http://www.w3.org/2000/svg">
<path d="M17.4877 36.0001C18.5923 36.0001 19.4877 35.1047 19.4877 34.0001C19.4877 32.8956 18.5923 32.0001 17.4877 32.0001C16.3831 32.0001 15.4877 32.8956 15.4877 34.0001C15.4877 35.1047 16.3831 36.0001 17.4877 36.0001Z" fill="white"/>
<path d="M31.4877 36.0001C32.5923 36.0001 33.4877 35.1047 33.4877 34.0001C33.4877 32.8956 32.5923 32.0001 31.4877 32.0001C30.3831 32.0001 29.4877 32.8956 29.4877 34.0001C29.4877 35.1047 30.3831 36.0001 31.4877 36.0001Z" fill="white"/>
<path d="M35.4877 13.0001H13.3077L12.4877 8.80008C12.441 8.57081 12.3153 8.36518 12.1326 8.21901C11.9498 8.07283 11.7216 7.99536 11.4877 8.00008H7.4877V10.0001H10.6677L14.4877 29.2001C14.5345 29.4294 14.6601 29.635 14.8428 29.7812C15.0256 29.9273 15.2538 30.0048 15.4877 30.0001H33.4877V28.0001H16.3077L15.4877 24.0001H33.4877C33.7189 24.0057 33.9448 23.9311 34.1272 23.7889C34.3095 23.6467 34.4369 23.4457 34.4877 23.2201L36.4877 14.2201C36.5212 14.0717 36.5204 13.9176 36.4854 13.7696C36.4504 13.6216 36.3821 13.4835 36.2857 13.3659C36.1892 13.2482 36.0672 13.1541 35.929 13.0907C35.7907 13.0273 35.6398 12.9963 35.4877 13.0001ZM32.6877 22.0001H15.1077L13.7077 15.0001H34.2377L32.6877 22.0001Z" fill="white"/>
</svg>
