<svg width="151" height="204" viewBox="0 0 151 204" fill="none" xmlns="http://www.w3.org/2000/svg">
<g clip-path="url(#clip0_1387_48645)">
<path d="M137.71 0.286011L13.561 0.286012C6.4463 0.286012 0.649162 6.09519 0.649162 13.2247L0.649163 190.668C0.649163 197.798 6.4463 203.607 13.561 203.607H137.71C144.825 203.607 150.622 197.798 150.622 190.668V13.2247C150.622 6.09518 144.825 0.286011 137.71 0.286011ZM148.25 190.668C148.25 196.515 143.507 201.231 137.71 201.231H13.561C7.72618 201.231 3.02071 196.478 3.02071 190.668V13.2247C3.02071 7.37773 7.76383 2.66249 13.561 2.66249L137.71 2.66248C143.545 2.66248 148.25 7.41545 148.25 13.2247V190.668Z" fill="white"/>
<path d="M31.1795 179.579L29.4855 178.635C29.1468 178.446 28.8832 178.258 28.7327 178.032C28.5821 177.805 28.4691 177.579 28.4691 177.315C28.4691 176.938 28.6197 176.674 28.8832 176.447C29.1467 176.221 29.5608 176.145 30.0502 176.145C30.5019 176.145 31.0289 176.258 31.6689 176.523C32.3088 176.749 32.9488 177.088 33.664 177.541V174.109C32.9111 173.845 32.2711 173.656 31.6689 173.543C31.0666 173.429 30.5019 173.354 29.9749 173.354C28.5821 173.354 27.4151 173.732 26.5493 174.486C25.6835 175.24 25.2318 176.184 25.2318 177.391C25.2318 178.258 25.4576 179.05 25.9093 179.729C26.3611 180.408 27.0763 181.011 28.055 181.578L29.0338 182.144C29.1467 182.219 29.2973 182.294 29.5232 182.408C30.8407 183.162 31.4807 183.841 31.4807 184.407C31.4807 184.822 31.2924 185.161 30.9159 185.425C30.5396 185.69 30.0502 185.84 29.4478 185.84C28.8456 185.84 28.2433 185.727 27.6033 185.5C26.9634 185.274 26.2105 184.897 25.3071 184.331L25.6082 188.216C26.3611 188.443 27.0763 188.632 27.7163 188.745C28.3562 188.858 28.9585 188.933 29.4855 188.933C31.1042 188.933 32.3841 188.481 33.3251 187.613C34.3039 186.745 34.7932 185.576 34.7932 184.18C34.7932 183.275 34.5298 182.482 34.0404 181.804C33.551 181.125 32.5723 180.37 31.1795 179.579Z" fill="white"/>
<path d="M37.9173 176.9H42.5475V188.481H46.0107V176.9H50.6409V173.845H37.9173V176.9Z" fill="white"/>
<path d="M63.5538 182.257C63.5538 183.388 63.3279 184.256 62.8386 184.86C62.3492 185.463 61.6339 185.764 60.7305 185.764C59.7894 185.764 59.0742 185.463 58.5848 184.822C58.0954 184.18 57.8696 183.199 57.8696 181.917V173.882H54.444V182.257C54.444 184.369 54.971 186.029 56.0627 187.198C57.1543 188.368 58.6601 188.933 60.5799 188.933C62.4998 188.933 64.0055 188.329 65.0595 187.161C66.1512 185.991 66.6783 184.332 66.6783 182.219V173.845H63.5538V182.257Z" fill="white"/>
<path d="M82.3751 175.806C80.8314 174.486 78.6857 173.845 75.9753 173.845H72.098V188.443H75.9753C77.1422 188.443 78.121 188.368 78.9115 188.179C79.7021 187.99 80.4172 187.726 81.0951 187.349C82.2616 186.67 83.1655 185.803 83.7678 184.746C84.3702 183.69 84.6709 182.482 84.6709 181.125C84.709 178.899 83.9178 177.126 82.3751 175.806ZM79.8903 184.218C79.0244 184.973 77.8575 185.312 76.3141 185.312H75.5612V176.975H76.3141C77.8199 176.975 79.0244 177.352 79.8903 178.107C80.7561 178.862 81.1705 179.88 81.1705 181.163C81.1705 182.482 80.7561 183.502 79.8903 184.218Z" fill="white"/>
<path d="M92.9113 173.845H89.4481V188.443H92.9113V173.845Z" fill="white"/>
<path d="M110.383 175.617C109.668 174.901 108.877 174.335 107.973 173.958C107.07 173.58 106.129 173.392 105.112 173.392C104.134 173.392 103.155 173.58 102.252 173.958C101.348 174.335 100.557 174.901 99.8797 175.58C99.1647 176.334 98.6005 177.164 98.2235 178.107C97.8474 179.05 97.6593 180.069 97.6593 181.125C97.6593 182.219 97.8474 183.199 98.2235 184.143C98.6005 185.086 99.1274 185.915 99.8797 186.67C100.596 187.387 101.386 187.952 102.289 188.329C103.193 188.707 104.134 188.896 105.112 188.896C106.28 188.896 107.371 188.632 108.388 188.103C109.404 187.575 110.307 186.858 111.023 185.915C111.512 185.237 111.889 184.52 112.152 183.728C112.416 182.935 112.528 182.068 112.528 181.163C112.528 180.069 112.34 179.05 111.963 178.107C111.625 177.164 111.06 176.334 110.383 175.617ZM107.861 184.369C107.108 185.237 106.204 185.651 105.112 185.651C104.021 185.651 103.117 185.237 102.364 184.369C101.612 183.502 101.235 182.445 101.235 181.163C101.235 179.88 101.612 178.823 102.364 177.956C103.117 177.088 104.021 176.674 105.112 176.674C106.204 176.674 107.108 177.088 107.861 177.956C108.614 178.823 108.953 179.88 108.953 181.163C108.953 182.445 108.576 183.502 107.861 184.369Z" fill="white"/>
<path d="M122.426 179.579L120.732 178.635C120.393 178.446 120.13 178.258 119.979 178.032C119.828 177.805 119.716 177.579 119.716 177.315C119.716 176.938 119.867 176.674 120.13 176.447C120.393 176.221 120.808 176.145 121.297 176.145C121.749 176.145 122.276 176.258 122.915 176.523C123.556 176.749 124.195 177.088 124.91 177.541V174.109C124.158 173.845 123.518 173.656 122.915 173.543C122.313 173.429 121.749 173.354 121.222 173.354C119.828 173.354 118.662 173.732 117.796 174.486C116.93 175.24 116.479 176.184 116.479 177.391C116.479 178.258 116.704 179.05 117.156 179.729C117.608 180.408 118.323 181.011 119.301 181.578L120.281 182.144C120.393 182.219 120.544 182.294 120.77 182.408C122.088 183.162 122.727 183.841 122.727 184.407C122.727 184.822 122.539 185.161 122.162 185.425C121.786 185.69 121.297 185.84 120.694 185.84C120.092 185.84 119.49 185.727 118.85 185.501C118.21 185.274 117.457 184.897 116.553 184.331L116.855 188.216C117.608 188.443 118.323 188.632 118.963 188.745C119.603 188.858 120.205 188.933 120.732 188.933C122.351 188.933 123.63 188.481 124.572 187.613C125.551 186.745 126.04 185.576 126.04 184.18C126.04 183.275 125.776 182.482 125.287 181.804C124.798 181.125 123.819 180.37 122.426 179.579Z" fill="white"/>
<path d="M31.7061 140.234L25.0807 155.663L18.4931 140.234H11.4537L24.629 169.544H25.0807L38.2561 140.234H31.7061Z" fill="white"/>
<path d="M58.658 146.044V140.234H41.4925V168.45H58.8085V162.528H47.9296V156.945H57.1146V151.136H47.9296V146.044H58.658Z" fill="white"/>
<path d="M80.8308 162.415H69.9893V140.234H63.3264V168.45H80.8308V162.415Z" fill="white"/>
<path d="M98.2973 139.367L84.0678 168.488H90.7687L92.5757 164.376H103.906L105.675 168.488H112.639L98.7115 139.367H98.2973ZM94.5326 159.473L98.2592 150.645L101.873 159.473H94.5326Z" fill="white"/>
<path d="M133.756 155.776L116.364 139.329H115.725V168.45H121.861V153.059L139.327 169.544H139.892V140.234H133.756V155.776Z" fill="white"/>
<path d="M76.8387 80.5959L103.754 124.881C104.205 125.598 105.147 125.749 105.787 125.221L128.787 106.36C129.314 105.945 129.465 105.153 129.089 104.587L76.8387 14.9599C76.6882 14.6958 76.4623 14.5072 76.1988 14.394V80.0302C76.4623 80.1433 76.6882 80.332 76.8387 80.5959Z" fill="white"/>
<path d="M80.189 125.938C80.4149 126.126 80.7537 126.239 81.0548 126.239H95.8491C96.9029 126.239 97.5807 125.07 97.0156 124.127L76.8387 90.441C76.6882 90.1769 76.4623 89.9883 76.1988 89.8754V122.732C76.3117 122.769 76.4246 122.845 76.5376 122.92L80.189 125.938Z" fill="white"/>
<path d="M22.448 106.398L45.4484 125.258C46.0883 125.787 47.067 125.636 47.4811 124.92L74.3965 80.6337C74.547 80.3697 74.7729 80.181 75.0364 80.1056V14.394C74.7729 14.5072 74.547 14.6958 74.3965 14.9599L22.1469 104.587C21.8081 105.191 21.921 105.945 22.448 106.398Z" fill="white"/>
<path d="M71.0411 125.938L74.7301 122.958C74.8431 122.882 74.956 122.806 75.0689 122.769V89.9136C74.8054 90.0265 74.5796 90.2151 74.429 90.4792L54.2143 124.127C53.6496 125.07 54.3272 126.239 55.3812 126.239H70.1752C70.514 126.239 70.8152 126.126 71.0411 125.938Z" fill="white"/>
</g>
<defs>
<clipPath id="clip0_1387_48645">
<rect width="150.783" height="204" fill="white"/>
</clipPath>
</defs>
</svg>
