<svg width="162" height="48" viewBox="0 0 162 48" fill="none" xmlns="http://www.w3.org/2000/svg">
<path d="M160.97 42.3318C160.97 42.9359 160.851 43.5341 160.619 44.0921C160.388 44.6501 160.048 45.1571 159.621 45.584C159.193 46.0109 158.685 46.3494 158.127 46.5802C157.568 46.8109 156.97 46.9293 156.365 46.9287H5.68083C4.45953 46.93 3.28772 46.4464 2.42312 45.5844C1.55851 44.7223 1.0719 43.5524 1.07031 42.3318V5.67319C1.0719 4.45209 1.55832 3.28153 2.42275 2.41852C3.28718 1.55552 4.45897 1.07063 5.68083 1.07031H156.364C156.969 1.07031 157.568 1.18938 158.126 1.42071C158.685 1.65204 159.193 1.99111 159.62 2.41854C160.048 2.84597 160.387 3.3534 160.618 3.91184C160.85 4.47028 160.969 5.06879 160.968 5.67319L160.97 42.3318Z" fill="white"/>
<path d="M156.364 47.998H5.67938C4.17487 47.9976 2.73194 47.4009 1.66719 46.3386C0.602449 45.2763 0.00286266 43.8353 0 42.3317L0 5.67424C0.0022257 4.16992 0.601417 2.72789 1.66613 1.66451C2.73084 0.60113 4.17413 0.00322283 5.67938 0.00195312L156.362 0.00195313C157.868 0.00385639 159.31 0.601967 160.375 1.66521C161.44 2.72846 162.039 4.17011 162.042 5.67424V42.3317C162.044 45.4571 159.492 47.998 156.364 47.998Z" fill="#A6A6A6"/>
<path d="M160.97 42.3318C160.97 42.9359 160.851 43.5341 160.619 44.0921C160.388 44.6501 160.048 45.1571 159.621 45.584C159.193 46.0109 158.685 46.3494 158.127 46.5802C157.568 46.8109 156.97 46.9293 156.365 46.9287H5.68083C4.45953 46.93 3.28772 46.4464 2.42312 45.5844C1.55851 44.7223 1.0719 43.5524 1.07031 42.3318V5.67319C1.0719 4.45209 1.55832 3.28153 2.42275 2.41852C3.28718 1.55552 4.45897 1.07063 5.68083 1.07031H156.364C156.969 1.07031 157.568 1.18938 158.126 1.42071C158.685 1.65204 159.193 1.99111 159.62 2.41854C160.048 2.84597 160.387 3.3534 160.618 3.91184C160.85 4.47028 160.969 5.06879 160.968 5.67319L160.97 42.3318Z" fill="black"/>
<path d="M36.1795 23.7484C36.1446 19.88 39.3488 17.9981 39.4954 17.9104C37.6807 15.2663 34.868 14.9051 33.8796 14.8763C31.5173 14.6278 29.2259 16.2889 28.0225 16.2889C26.7951 16.2889 24.942 14.9003 22.9448 14.9411C20.3747 14.9807 17.9704 16.4678 16.6517 18.777C13.9303 23.4855 15.96 30.4048 18.5673 34.2108C19.8715 36.0759 21.3956 38.1559 23.3904 38.0827C25.3419 38.0035 26.0709 36.8405 28.426 36.8405C30.7595 36.8405 31.4441 38.0827 33.4785 38.0359C35.573 38.0035 36.8917 36.1635 38.1503 34.2828C39.6575 32.1476 40.2628 30.0424 40.2868 29.9344C40.2388 29.9175 36.2203 28.3837 36.1795 23.7484ZM32.3364 12.3726C33.386 11.0607 34.1042 9.27599 33.9048 7.46484C32.3856 7.53206 30.4857 8.51505 29.3916 9.79809C28.4236 10.9287 27.5589 12.7819 27.7823 14.5246C29.4889 14.6518 31.2411 13.664 32.3364 12.3726Z" fill="white"/>
<path d="M156.367 0.00195313H75.6562L107.269 47.998H156.367C157.872 47.9967 159.315 47.3991 160.38 46.3363C161.444 45.2734 162.044 43.832 162.047 42.3281V5.67424C162.044 4.17001 161.445 2.72818 160.38 1.66486C159.316 0.601549 157.872 0.00353973 156.367 0.00195312V0.00195313Z" fill="url(#paint0_linear_2003_14637)"/>
<path d="M64.4538 37.8146H61.7264L60.2324 33.1229H55.0394L53.6163 37.8146H50.9609L56.1071 21.8419H59.2848L64.4538 37.8146ZM59.7821 31.1545L58.431 26.9837C58.288 26.5576 58.019 25.5542 57.6251 23.9747H57.5771C57.4185 24.6541 57.1651 25.6574 56.8181 26.9837L55.4898 31.1545H59.7821ZM77.6621 31.9142C77.6621 33.873 77.13 35.4213 76.0648 36.5579C75.1112 37.5697 73.9259 38.075 72.5123 38.075C70.9859 38.075 69.8882 37.5313 69.2217 36.4415V42.4847H66.6612V30.0827C66.6612 28.8525 66.6288 27.591 66.5663 26.2972H68.8181L68.9611 28.1227H69.0091C69.863 26.7473 71.1588 26.0595 72.8978 26.0595C74.2573 26.0595 75.3922 26.596 76.3002 27.6702C77.2069 28.7468 77.6621 30.1607 77.6621 31.9142ZM75.0536 32.0079C75.0536 30.8868 74.8014 29.9627 74.2946 29.2341C73.7409 28.4768 72.9975 28.0975 72.0656 28.0975C71.4338 28.0975 70.8598 28.3088 70.347 28.7252C69.833 29.1453 69.4967 29.6938 69.3394 30.3731C69.2691 30.6272 69.2292 30.8887 69.2205 31.1521V33.0737C69.2205 33.9102 69.4775 34.6172 69.9915 35.1957C70.5055 35.7718 71.1732 36.061 71.9947 36.061C72.9591 36.061 73.7097 35.6878 74.2465 34.9472C74.7845 34.2043 75.0536 33.2249 75.0536 32.0079ZM90.9172 31.9142C90.9172 33.873 90.3851 35.4213 89.3199 36.5579C88.3651 37.5697 87.1809 38.075 85.7662 38.075C84.2398 38.075 83.1421 37.5313 82.4755 36.4415V42.4847H79.9151V30.0827C79.9151 28.8525 79.8827 27.591 79.8202 26.2972H82.072L82.2149 28.1227H82.263C83.1157 26.7473 84.4115 26.0595 86.1517 26.0595C87.51 26.0595 88.6449 26.596 89.5553 27.6702C90.4608 28.7468 90.9172 30.1607 90.9172 31.9142ZM88.3075 32.0079C88.3075 30.8868 88.054 29.9627 87.5472 29.2341C86.9936 28.4768 86.2526 28.0975 85.3206 28.0975C84.6889 28.0975 84.1149 28.3088 83.5997 28.7252C83.0856 29.1453 82.7506 29.6938 82.5932 30.3731C82.5152 30.69 82.4731 30.9481 82.4731 31.1521V33.0737C82.4731 33.9102 82.7314 34.6172 83.243 35.1957C83.757 35.7706 84.4247 36.061 85.2486 36.061C86.2142 36.061 86.9648 35.6878 87.5004 34.9472C88.0384 34.2043 88.3075 33.2249 88.3075 32.0079ZM105.737 33.3341C105.737 34.694 105.262 35.7994 104.316 36.6528C103.276 37.5841 101.824 38.051 99.9629 38.051C98.2431 38.051 96.8644 37.7198 95.8243 37.056L96.4164 34.9232C97.5393 35.5881 98.7727 35.9194 100.115 35.9194C101.081 35.9194 101.832 35.701 102.367 35.2677C102.904 34.8332 103.175 34.2523 103.175 33.5274C103.175 32.878 102.951 32.3343 102.51 31.8914C102.067 31.4498 101.334 31.0381 100.305 30.66C97.5069 29.617 96.1065 28.0915 96.1065 26.0847C96.1065 24.7741 96.6013 23.7011 97.5885 22.8621C98.5757 22.0243 99.8848 21.6055 101.513 21.6055C102.968 21.6055 104.179 21.8587 105.141 22.364L104.499 24.45C103.593 23.9603 102.571 23.7155 101.428 23.7155C100.525 23.7155 99.8163 23.9375 99.3095 24.3792C98.8832 24.7741 98.667 25.2554 98.667 25.8267C98.667 26.4568 98.9132 26.9801 99.4032 27.3906C99.8283 27.7686 100.604 28.1803 101.726 28.622C103.102 29.1765 104.113 29.8222 104.761 30.564C105.413 31.3057 105.737 32.2311 105.737 33.3341ZM114.224 28.2175H111.402V33.8094C111.402 35.2317 111.899 35.941 112.896 35.941C113.354 35.941 113.733 35.9026 114.033 35.8222L114.104 37.7654C113.6 37.9538 112.936 38.0486 112.113 38.0486C111.102 38.0486 110.312 37.7402 109.741 37.1232C109.173 36.5063 108.887 35.4729 108.887 34.0182V28.2127H107.206V26.2924H108.887V24.1836L111.402 23.425V26.2924H114.224V28.2175ZM126.933 31.9611C126.933 33.7314 126.426 35.1849 125.415 36.3215C124.357 37.4917 122.949 38.075 121.195 38.075C119.501 38.075 118.155 37.5145 117.151 36.3947C116.147 35.2725 115.645 33.8586 115.645 32.1531C115.645 30.3683 116.164 28.9065 117.198 27.7698C118.234 26.632 119.63 26.0631 121.385 26.0631C123.075 26.0631 124.434 26.6248 125.462 27.7458C126.444 28.8333 126.933 30.2375 126.933 31.9611ZM124.279 32.0199C124.279 30.9649 124.051 30.0599 123.593 29.3025C123.056 28.388 122.288 27.9307 121.292 27.9307C120.266 27.9307 119.48 28.388 118.944 29.3025C118.485 30.0599 118.257 30.9805 118.257 32.0679C118.257 33.1241 118.485 34.0315 118.944 34.7864C119.498 35.701 120.27 36.1583 121.27 36.1583C122.249 36.1583 123.017 35.6914 123.571 34.7636C124.042 33.9882 124.279 33.0773 124.279 32.0199ZM135.259 28.5476C134.993 28.4996 134.723 28.4758 134.452 28.4768C133.552 28.4768 132.855 28.8152 132.365 29.497C131.94 30.0971 131.726 30.8556 131.726 31.7714V37.8146H129.166V29.9243C129.168 28.7152 129.143 27.5063 129.091 26.2984H131.321L131.415 28.502H131.486C131.757 27.7446 132.182 27.1337 132.766 26.6764C133.3 26.2769 133.949 26.0605 134.617 26.0595C134.853 26.0595 135.067 26.0763 135.257 26.1063L135.259 28.5476ZM146.711 31.511C146.717 31.9 146.686 32.2887 146.617 32.6716H138.935C138.964 33.8094 139.337 34.6808 140.05 35.2809C140.697 35.8162 141.534 36.085 142.562 36.085C143.7 36.085 144.737 35.905 145.671 35.5413L146.072 37.3165C144.981 37.7918 143.694 38.0282 142.208 38.0282C140.421 38.0282 139.018 37.5025 137.998 36.4535C136.979 35.4033 136.469 33.9918 136.469 32.2239C136.469 30.4884 136.943 29.0421 137.893 27.8887C138.887 26.6572 140.231 26.0415 141.922 26.0415C143.583 26.0415 144.841 26.6572 145.695 27.8887C146.371 28.8645 146.711 30.0743 146.711 31.511ZM144.269 30.8472C144.287 30.0875 144.119 29.4334 143.772 28.8801C143.329 28.1671 142.646 27.8119 141.733 27.8119C140.895 27.8119 140.213 28.1587 139.694 28.8549C139.268 29.4082 139.015 30.0731 138.937 30.8448L144.269 30.8472Z" fill="white"/>
<path d="M54.2942 16.1944C53.582 16.1944 52.9659 16.1596 52.4531 16.1008V8.37849C53.1704 8.26776 53.8951 8.21318 54.6209 8.21525C57.5572 8.21525 58.9095 9.65913 58.9095 12.0128C58.9095 14.7277 57.3122 16.1944 54.2942 16.1944ZM54.7242 9.20544C54.3278 9.20544 53.9904 9.22945 53.7105 9.28706V15.1574C53.8619 15.1814 54.1525 15.1922 54.5608 15.1922C56.4848 15.1922 57.5801 14.0976 57.5801 12.0476C57.5801 10.2196 56.5893 9.20544 54.7242 9.20544ZM63.1237 16.2532C61.4688 16.2532 60.3963 15.0182 60.3963 13.3414C60.3963 11.5939 61.4916 10.3481 63.2174 10.3481C64.8483 10.3481 65.9448 11.5243 65.9448 13.249C65.9448 15.0182 64.8147 16.2532 63.1237 16.2532ZM63.1718 11.2674C62.2626 11.2674 61.6802 12.1172 61.6802 13.3054C61.6802 14.4709 62.2746 15.3206 63.1598 15.3206C64.0449 15.3206 64.6393 14.412 64.6393 13.2814C64.6393 12.1292 64.0569 11.2674 63.1718 11.2674ZM75.382 10.4645L73.6106 16.1248H72.4564L71.7227 13.6667C71.5402 13.0654 71.3883 12.4553 71.2675 11.8387H71.2435C71.151 12.4557 70.9757 13.0738 70.7895 13.6667L70.0089 16.1248H68.8427L67.1758 10.4645H68.4692L69.1106 13.1554C69.2619 13.7963 69.3892 14.4012 69.4949 14.9725H69.5189C69.6114 14.4961 69.7627 13.9007 69.9849 13.1674L70.7895 10.4657H71.8151L72.585 13.1098C72.7711 13.7507 72.9224 14.3796 73.0401 14.9738H73.0737C73.1554 14.3916 73.2839 13.7735 73.4581 13.1098L74.1462 10.4657L75.382 10.4645ZM81.9033 16.1248H80.6446V12.8745C80.6446 11.8736 80.2603 11.3719 79.5025 11.3719C78.7567 11.3719 78.2439 12.0128 78.2439 12.7581V16.1248H76.9853V12.0824C76.9853 11.5819 76.9733 11.0454 76.9385 10.4633H78.0458L78.1046 11.3371H78.1394C78.4781 10.7321 79.1651 10.3481 79.9349 10.3481C81.1238 10.3481 81.9045 11.2566 81.9045 12.7353L81.9033 16.1248ZM85.3741 16.1248H84.1142V7.86719H85.3741V16.1248ZM89.963 16.2532C88.3092 16.2532 87.2356 15.0182 87.2356 13.3414C87.2356 11.5939 88.3308 10.3481 90.0554 10.3481C91.6875 10.3481 92.7828 11.5243 92.7828 13.249C92.784 15.0182 91.6527 16.2532 89.963 16.2532ZM90.0098 11.2674C89.1007 11.2674 88.5182 12.1172 88.5182 13.3054C88.5182 14.4709 89.1139 15.3206 89.9966 15.3206C90.8829 15.3206 91.4762 14.412 91.4762 13.2814C91.4774 12.1292 90.8961 11.2674 90.0098 11.2674ZM97.7452 16.1248L97.654 15.473H97.6203C97.236 15.9975 96.6752 16.2532 95.9642 16.2532C94.9494 16.2532 94.2288 15.5427 94.2288 14.5873C94.2288 13.1902 95.4406 12.4677 97.5387 12.4677V12.3632C97.5387 11.6179 97.1435 11.2446 96.3629 11.2446C95.8045 11.2446 95.3145 11.3851 94.8833 11.6647L94.6275 10.8378C95.1511 10.5113 95.8045 10.3481 96.5719 10.3481C98.0515 10.3481 98.7985 11.1282 98.7985 12.6897V14.7745C98.7985 15.3458 98.8237 15.7887 98.8801 16.126L97.7452 16.1248ZM97.5723 13.3054C96.1744 13.3054 95.473 13.6439 95.473 14.4468C95.473 15.041 95.8345 15.3314 96.3365 15.3314C96.9766 15.3314 97.5723 14.8429 97.5723 14.1792V13.3054ZM104.91 16.1248L104.851 15.2162H104.817C104.455 15.9027 103.847 16.2532 102.998 16.2532C101.633 16.2532 100.622 15.053 100.622 13.3642C100.622 11.5939 101.67 10.3469 103.102 10.3469C103.859 10.3469 104.396 10.6025 104.699 11.1162H104.724V7.86719H105.984V14.5993C105.984 15.1466 105.997 15.6591 106.031 16.1248H104.91ZM104.724 12.7941C104.724 12.002 104.199 11.3263 103.398 11.3263C102.465 11.3263 101.895 12.1532 101.895 13.3174C101.895 14.4589 102.487 15.2402 103.373 15.2402C104.164 15.2402 104.724 14.5525 104.724 13.7375V12.7941ZM113.972 16.2532C112.318 16.2532 111.245 15.0182 111.245 13.3414C111.245 11.5939 112.341 10.3481 114.065 10.3481C115.697 10.3481 116.793 11.5243 116.793 13.249C116.794 15.0182 115.664 16.2532 113.972 16.2532ZM114.018 11.2674C113.11 11.2674 112.528 12.1172 112.528 13.3054C112.528 14.4709 113.122 15.3206 114.006 15.3206C114.893 15.3206 115.486 14.412 115.486 13.2814C115.488 12.1292 114.906 11.2674 114.018 11.2674ZM123.561 16.1248H122.301V12.8745C122.301 11.8736 121.917 11.3719 121.159 11.3719C120.414 11.3719 119.902 12.0128 119.902 12.7581V16.1248H118.642V12.0824C118.642 11.5819 118.63 11.0454 118.595 10.4633H119.703L119.761 11.3371H119.796C120.134 10.7321 120.822 10.3469 121.59 10.3469C122.779 10.3469 123.561 11.2554 123.561 12.7341V16.1248ZM132.029 11.4079H130.645V14.1564C130.645 14.8561 130.887 15.2054 131.377 15.2054C131.599 15.2054 131.785 15.1814 131.936 15.1466L131.97 16.102C131.727 16.1956 131.4 16.2424 130.994 16.2424C130.002 16.2424 129.409 15.6951 129.409 14.262V11.4079H128.582V10.4645H129.409V9.42749L130.645 9.05422V10.4633H132.029V11.4079ZM138.692 16.1248H137.435V12.8986C137.435 11.8856 137.052 11.3731 136.293 11.3731C135.641 11.3731 135.033 11.8159 135.033 12.7125V16.1248H133.775V7.86719H135.033V11.2674H135.058C135.454 10.6505 136.028 10.3469 136.761 10.3469C137.96 10.3469 138.692 11.2782 138.692 12.7581V16.1248ZM145.519 13.5971H141.742C141.766 14.6689 142.475 15.2738 143.526 15.2738C144.085 15.2738 144.599 15.1802 145.053 15.0062L145.248 15.8799C144.713 16.1128 144.082 16.2292 143.348 16.2292C141.577 16.2292 140.529 15.1106 140.529 13.3762C140.529 11.6407 141.602 10.3361 143.207 10.3361C144.654 10.3361 145.562 11.4079 145.562 13.027C145.57 13.2181 145.555 13.4094 145.519 13.5971ZM144.364 12.7005C144.364 11.8267 143.924 11.2098 143.119 11.2098C142.396 11.2098 141.824 11.8387 141.743 12.7005H144.364Z" fill="white"/>
<defs>
<linearGradient id="paint0_linear_2003_14637" x1="118.85" y1="48.1254" x2="118.85" y2="-124.971" gradientUnits="userSpaceOnUse">
<stop stop-color="#1A1A1A" stop-opacity="0.1"/>
<stop offset="0.123" stop-color="#212121" stop-opacity="0.151"/>
<stop offset="0.308" stop-color="#353535" stop-opacity="0.227"/>
<stop offset="0.532" stop-color="#575757" stop-opacity="0.318"/>
<stop offset="0.783" stop-color="#858585" stop-opacity="0.421"/>
<stop offset="1" stop-color="#B3B3B3" stop-opacity="0.51"/>
</linearGradient>
</defs>
</svg>
