<svg width="54" height="42" viewBox="0 0 54 42" fill="none" xmlns="http://www.w3.org/2000/svg">
<path d="M53.5246 31.9031C52.4652 33.2344 49.8871 34.1813 49.8871 34.1813L30.659 41.0813V35.9906L44.8059 30.9469C46.409 30.375 46.6621 29.5594 45.3496 29.1281C44.0465 28.6969 41.684 28.8188 40.0809 29.4L30.659 32.7281V27.4406C32.834 26.7094 35.0746 26.1656 37.7559 25.8656C41.5902 25.4437 46.2777 25.9219 49.9621 27.3187C54.1059 28.6312 54.5746 30.5719 53.5246 31.9031ZM32.4871 23.2312V10.2C32.4871 8.67188 32.2059 7.26562 30.7715 6.8625C29.6746 6.50625 28.9902 7.52813 28.9902 9.05625V41.6719L20.1965 38.8781V0C23.9371 0.69375 29.384 2.33438 32.309 3.31875C39.7621 5.87813 42.284 9.06562 42.284 16.2375C42.284 23.2219 37.9715 25.875 32.4871 23.2312V23.2312ZM4.05274 35.4563C-0.203511 34.2563 -0.916011 31.7531 1.02461 30.3187C2.81524 28.9875 5.87149 27.9844 5.87149 27.9844L18.4809 23.5031V28.6125L9.40586 31.8562C7.80274 32.4281 7.55899 33.2438 8.86211 33.675C10.1652 34.1063 12.5277 33.9844 14.1309 33.4031L18.4809 31.8187V36.3938C13.6434 37.2656 8.97461 37.0781 4.05274 35.4563V35.4563Z" fill="white"/>
</svg>
