<svg width="108" height="24" viewBox="0 0 108 24" fill="none" xmlns="http://www.w3.org/2000/svg">
<path d="M55.3736 17.3088V6.56614C55.3736 4.36902 56.3895 2.80302 58.5731 2.80302H72.036C72.1035 2.80302 72.1946 2.73214 72.1946 2.64439V0.497892C72.1946 0.481017 72.1946 0.467516 72.1777 0.447266H55.7078C52.1404 0.902891 50.3989 3.40039 50.3989 6.56277V17.3054C50.3989 19.4654 49.3459 21.0483 47.1994 21.0483H33.0142C32.9231 21.0483 32.8556 21.0989 32.8556 21.2069V23.35C32.8556 23.4411 32.8927 23.512 32.94 23.5255H49.0759C53.2778 23.404 55.3534 20.731 55.3534 17.2885L55.3736 17.3088ZM0.104625 23.5458H4.833C4.87203 23.5318 4.90539 23.5055 4.92795 23.4707C4.95052 23.4359 4.96103 23.3947 4.95787 23.3534V16.519C4.95787 14.3219 6.18637 12.8099 7.99537 12.8099H27.459C31.833 12.8099 33.9626 10.12 33.9626 6.58639C33.9626 3.40377 32.2211 0.926516 28.6537 0.470891H0.037125C0.037125 0.484391 0 0.501267 0 0.521517V2.66802C0 2.77264 0.054 2.82664 0.158625 2.82664H25.8053C27.9889 2.82664 29.0047 4.39264 29.0047 6.56952C29.0047 8.74639 27.9889 10.3326 25.8053 10.3326H5.52487C2.376 10.3326 0.003375 13.0056 0.003375 16.519V23.3534C0.003375 23.4445 0.057375 23.5154 0.124875 23.5289L0.104625 23.5458ZM72.1035 21.0719H97.9459C98.0134 21.0719 98.0843 21.1225 98.0843 21.1765V23.3534C98.0843 23.4614 98.1517 23.5154 98.2226 23.5154H102.88C102.971 23.5154 103.056 23.4614 103.056 23.3534V21.2103C103.056 21.1191 103.147 21.0516 103.231 21.0516H107.858C107.963 21.0516 108.017 20.9605 108.017 20.893V18.7094C108.017 18.625 107.98 18.5339 107.858 18.5339H103.231C103.147 18.5339 103.056 18.4664 103.056 18.3955V2.80302C103.056 1.53739 102.6 0.727392 101.79 0.450642H100.453C99.9758 0.593359 99.5169 0.792778 99.0866 1.04464L71.2766 18.22C70.1865 18.9051 69.8186 19.6611 70.0785 20.2214C70.2911 20.6973 70.9256 21.0483 72.117 21.0483L72.1035 21.0719ZM76.1501 18.2065L97.6995 4.86514C97.8379 4.76052 98.1045 4.79427 98.1045 5.09464V18.4191C98.1045 18.5035 98.0336 18.5778 97.9661 18.5778H76.2716C76.0961 18.5778 76.0117 18.5238 75.9915 18.4731C75.9544 18.3651 76.0084 18.2808 76.1501 18.2065Z" fill="white"/>
</svg>
