<svg width="108" height="24" viewBox="0 0 108 24" fill="none" xmlns="http://www.w3.org/2000/svg">
<path d="M47.026 23.5646C47.8437 23.5646 48.6533 23.4035 49.4087 23.0904C50.164 22.7774 50.8503 22.3186 51.4283 21.7402C52.0062 21.1618 52.4646 20.4752 52.7771 19.7196C53.0896 18.964 53.2501 18.1543 53.2495 17.3366V6.63561C53.2495 6.14297 53.3466 5.65516 53.5353 5.20008C53.7239 4.745 54.0005 4.33157 54.349 3.98343C54.6976 3.63529 55.1113 3.35927 55.5666 3.17116C56.0219 2.98304 56.5099 2.88652 57.0025 2.88711H69.0805C69.1024 2.88653 69.1239 2.88164 69.1439 2.87273C69.1639 2.86382 69.1819 2.85106 69.1969 2.83518C69.212 2.8193 69.2238 2.80061 69.2316 2.78018C69.2394 2.75975 69.2431 2.73798 69.2425 2.71611V0.574112C69.2425 0.531147 69.2254 0.489939 69.1951 0.459558C69.1647 0.429177 69.1235 0.412111 69.0805 0.412111H54.5275C53.7099 0.41152 52.9001 0.572058 52.1445 0.884553C51.3889 1.19705 50.7023 1.65538 50.1239 2.23334C49.5455 2.8113 49.0867 3.49758 48.7737 4.25294C48.4606 5.0083 48.2995 5.81795 48.2995 6.63561V17.3456C48.2995 18.3402 47.9047 19.2941 47.2019 19.9978C46.499 20.7015 45.5456 21.0974 44.551 21.0986H32.6395C32.6179 21.0986 32.5964 21.1029 32.5765 21.1114C32.5565 21.1198 32.5384 21.1321 32.5233 21.1476C32.5082 21.1632 32.4964 21.1816 32.4885 21.2017C32.4807 21.2219 32.4769 21.2435 32.4775 21.2651V23.4071C32.4775 23.4501 32.4946 23.4913 32.525 23.5217C32.5553 23.552 32.5965 23.5691 32.6395 23.5691L47.026 23.5646ZM74.2285 9.10611V0.574112C74.2285 0.531147 74.2456 0.489939 74.276 0.459558C74.3063 0.429177 74.3475 0.412111 74.3905 0.412111H107.277C107.32 0.412095 107.362 0.429017 107.393 0.459275C107.424 0.489533 107.442 0.530738 107.443 0.574112V2.71611C107.443 2.76069 107.426 2.80352 107.395 2.83546C107.363 2.86741 107.321 2.88594 107.277 2.88711H79.3315C79.3102 2.88711 79.2892 2.8913 79.2695 2.89944C79.2499 2.90758 79.232 2.91952 79.217 2.93456C79.2019 2.9496 79.19 2.96746 79.1818 2.98712C79.1737 3.00677 79.1695 3.02783 79.1695 3.04911V8.61111C79.1683 8.84605 79.2137 9.0789 79.3031 9.29618C79.3924 9.51347 79.524 9.71089 79.6901 9.87702C79.8562 10.0431 80.0536 10.1747 80.2709 10.264C80.4882 10.3534 80.7211 10.3988 80.956 10.3976H101.755C103.434 10.4958 105.012 11.232 106.166 12.4554C107.32 13.6789 107.963 15.2971 107.963 16.9789C107.963 18.6607 107.32 20.2789 106.166 21.5023C105.012 22.7257 103.434 23.4619 101.755 23.5601H74.395C74.3734 23.5607 74.3518 23.557 74.3316 23.5491C74.3115 23.5412 74.2931 23.5294 74.2775 23.5143C74.262 23.4992 74.2497 23.4811 74.2413 23.4612C74.2328 23.4412 74.2285 23.4198 74.2285 23.3981V21.2651C74.2279 21.2435 74.2317 21.2219 74.2395 21.2017C74.2474 21.1816 74.2592 21.1632 74.2743 21.1476C74.2894 21.1321 74.3075 21.1198 74.3275 21.1114C74.3474 21.1029 74.3689 21.0986 74.3905 21.0986H99.2755C99.8325 21.1224 100.388 21.033 100.91 20.8358C101.431 20.6386 101.907 20.3377 102.309 19.9512C102.711 19.5648 103.03 19.1009 103.247 18.5875C103.465 18.0742 103.576 17.5221 103.574 16.9646C103.572 16.4071 103.456 15.8559 103.235 15.3442C103.014 14.8326 102.691 14.3711 102.286 13.9877C101.882 13.6044 101.403 13.3071 100.88 13.1139C100.357 12.9207 99.8008 12.8355 99.244 12.8636H77.977C77.484 12.8636 76.9958 12.7664 76.5404 12.5774C76.0851 12.3885 75.6714 12.1116 75.3232 11.7625C74.975 11.4135 74.6991 10.9992 74.5113 10.5434C74.3234 10.0875 74.2273 9.59913 74.2285 9.10611ZM25.4215 10.3976C26.4181 10.3976 27.3738 10.0017 28.0785 9.29706C28.7831 8.5924 29.179 7.63666 29.179 6.64011C29.179 5.64356 28.7831 4.68782 28.0785 3.98316C27.3738 3.27849 26.4181 2.88261 25.4215 2.88261H0.167514C0.124124 2.88263 0.0824418 2.8657 0.0513432 2.83545C0.0202446 2.80519 0.00218634 2.76398 0.00101364 2.72061V0.57861C0.00100529 0.556952 0.00533988 0.535512 0.0137611 0.515558C0.0221823 0.495605 0.0345192 0.477541 0.0500421 0.462438C0.0655651 0.447334 0.083959 0.435496 0.104136 0.427625C0.124313 0.419753 0.145864 0.416007 0.167514 0.416609H27.8515C29.4737 0.460225 31.0148 1.13529 32.1468 2.29809C33.2787 3.46088 33.9121 5.01958 33.9121 6.64236C33.9121 8.26514 33.2787 9.82384 32.1468 10.9866C31.0148 12.1494 29.4737 12.8245 27.8515 12.8681H8.69951C8.20687 12.8681 7.71907 12.9652 7.26398 13.1539C6.8089 13.3425 6.39547 13.6191 6.04733 13.9676C5.69919 14.3162 5.42317 14.7299 5.23506 15.1852C5.04694 15.6405 4.95042 16.1285 4.95101 16.6211V23.4296C4.95102 23.4513 4.94669 23.4727 4.93827 23.4927C4.92985 23.5126 4.91751 23.5307 4.90199 23.5458C4.88646 23.5609 4.86807 23.5727 4.84789 23.5806C4.82771 23.5885 4.80616 23.5922 4.78451 23.5916H0.167514C0.144261 23.5924 0.121112 23.5882 0.0996388 23.5792C0.078166 23.5703 0.0588742 23.5568 0.0430759 23.5397C0.0272776 23.5226 0.0153433 23.5023 0.00808515 23.4802C0.000826958 23.4581 -0.00158491 23.4347 0.00101364 23.4116V16.6031C0.00696933 14.9557 0.665903 13.3778 1.83336 12.2154C3.00082 11.053 4.58155 10.4009 6.22901 10.4021L25.4215 10.3976Z" fill="white"/>
</svg>
