<svg width="64" height="72" viewBox="0 0 64 72" fill="none" xmlns="http://www.w3.org/2000/svg">
<g filter="url(#filter0_d_2234_43808)">
<path d="M40 43.5769L40 47.5385L32.0423 42.3846L24 48L24 43.5769L32.0423 38L40 43.5769Z" fill="url(#paint0_linear_2234_43808)"/>
<path d="M32.1782 42.1748L32.0371 42.0834L31.8992 42.1796L24.25 47.5205L24.25 43.7078L32.0416 38.3048L39.75 43.707L39.75 47.0787L32.1782 42.1748Z" stroke="#F7C6A5" stroke-width="0.5"/>
</g>
<g filter="url(#filter1_d_2234_43808)">
<path d="M40 36.5769L40 40.5385L32.0423 35.3846L24 41L24 36.5769L32.0423 31L40 36.5769Z" fill="url(#paint1_linear_2234_43808)"/>
<path d="M32.1782 35.1748L32.0371 35.0834L31.8992 35.1796L24.25 40.5205L24.25 36.7078L32.0416 31.3048L39.75 36.707L39.75 40.0787L32.1782 35.1748Z" stroke="#F7C6A5" stroke-width="0.5"/>
</g>
<g filter="url(#filter2_d_2234_43808)">
<path d="M40 29.5769L40 33.5385L32.0423 28.3846L24 34L24 29.5769L32.0423 24L40 29.5769Z" fill="url(#paint2_linear_2234_43808)"/>
<path d="M32.1782 28.1748L32.0371 28.0834L31.8992 28.1796L24.25 33.5205L24.25 29.7078L32.0416 24.3048L39.75 29.707L39.75 33.0787L32.1782 28.1748Z" stroke="#F7C6A5" stroke-width="0.5"/>
</g>
<defs>
<filter id="filter0_d_2234_43808" x="0" y="14" width="64" height="58" filterUnits="userSpaceOnUse" color-interpolation-filters="sRGB">
<feFlood flood-opacity="0" result="BackgroundImageFix"/>
<feColorMatrix in="SourceAlpha" type="matrix" values="0 0 0 0 0 0 0 0 0 0 0 0 0 0 0 0 0 0 127 0" result="hardAlpha"/>
<feOffset/>
<feGaussianBlur stdDeviation="12"/>
<feComposite in2="hardAlpha" operator="out"/>
<feColorMatrix type="matrix" values="0 0 0 0 0.984314 0 0 0 0 0.337255 0 0 0 0 0 0 0 0 0.75 0"/>
<feBlend mode="normal" in2="BackgroundImageFix" result="effect1_dropShadow_2234_43808"/>
<feBlend mode="normal" in="SourceGraphic" in2="effect1_dropShadow_2234_43808" result="shape"/>
</filter>
<filter id="filter1_d_2234_43808" x="0" y="7" width="64" height="58" filterUnits="userSpaceOnUse" color-interpolation-filters="sRGB">
<feFlood flood-opacity="0" result="BackgroundImageFix"/>
<feColorMatrix in="SourceAlpha" type="matrix" values="0 0 0 0 0 0 0 0 0 0 0 0 0 0 0 0 0 0 127 0" result="hardAlpha"/>
<feOffset/>
<feGaussianBlur stdDeviation="12"/>
<feComposite in2="hardAlpha" operator="out"/>
<feColorMatrix type="matrix" values="0 0 0 0 0.984314 0 0 0 0 0.337255 0 0 0 0 0 0 0 0 0.75 0"/>
<feBlend mode="normal" in2="BackgroundImageFix" result="effect1_dropShadow_2234_43808"/>
<feBlend mode="normal" in="SourceGraphic" in2="effect1_dropShadow_2234_43808" result="shape"/>
</filter>
<filter id="filter2_d_2234_43808" x="0" y="0" width="64" height="58" filterUnits="userSpaceOnUse" color-interpolation-filters="sRGB">
<feFlood flood-opacity="0" result="BackgroundImageFix"/>
<feColorMatrix in="SourceAlpha" type="matrix" values="0 0 0 0 0 0 0 0 0 0 0 0 0 0 0 0 0 0 127 0" result="hardAlpha"/>
<feOffset/>
<feGaussianBlur stdDeviation="12"/>
<feComposite in2="hardAlpha" operator="out"/>
<feColorMatrix type="matrix" values="0 0 0 0 0.984314 0 0 0 0 0.337255 0 0 0 0 0 0 0 0 0.75 0"/>
<feBlend mode="normal" in2="BackgroundImageFix" result="effect1_dropShadow_2234_43808"/>
<feBlend mode="normal" in="SourceGraphic" in2="effect1_dropShadow_2234_43808" result="shape"/>
</filter>
<linearGradient id="paint0_linear_2234_43808" x1="24" y1="42.9946" x2="35.6214" y2="42.9946" gradientUnits="userSpaceOnUse">
<stop stop-color="#FB5600"/>
<stop offset="1" stop-color="#F99300"/>
</linearGradient>
<linearGradient id="paint1_linear_2234_43808" x1="24" y1="35.9946" x2="35.6214" y2="35.9946" gradientUnits="userSpaceOnUse">
<stop stop-color="#FB5600"/>
<stop offset="1" stop-color="#F99300"/>
</linearGradient>
<linearGradient id="paint2_linear_2234_43808" x1="24" y1="28.9946" x2="35.6214" y2="28.9946" gradientUnits="userSpaceOnUse">
<stop stop-color="#FB5600"/>
<stop offset="1" stop-color="#F99300"/>
</linearGradient>
</defs>
</svg>
