<svg width="105" height="98" viewBox="0 0 105 98" fill="none" xmlns="http://www.w3.org/2000/svg">
<g clip-path="url(#clip0_1448_58947)">
<path d="M53.666 63.7234C53.4237 63.3475 52.9794 63.1173 52.5011 63.1173C52.0227 63.1173 51.5763 63.3475 51.3339 63.7234C48.7659 67.702 42.6454 77.1903 40.0454 81.2175C39.7988 81.5997 39.7967 82.0707 40.0369 82.455C40.2772 82.8415 40.7279 83.0759 41.2104 83.0759H48.8615C49.2102 83.0759 49.5482 82.9534 49.799 82.7317C50.2391 82.3452 50.9704 81.7053 51.5614 81.188C52.0844 80.7276 52.9114 80.7276 53.4343 81.188C54.0253 81.7053 54.7566 82.3452 55.1967 82.7317C55.4497 82.9513 55.7856 83.0759 56.1342 83.0759H63.7853C64.27 83.0759 64.7186 82.8394 64.9588 82.455C65.199 82.0728 65.1969 81.5997 64.9503 81.2175C62.3524 77.1903 56.2299 67.7041 53.6618 63.7234" fill="white"/>
<path d="M83.8814 73.178C81.4983 74.859 75.2332 79.2811 72.5801 81.1542C72.274 81.3718 71.8765 81.4583 71.4959 81.3908C71.1154 81.3232 70.7838 81.112 70.586 80.8058C68.4772 77.5367 62.6862 68.5616 60.7963 65.6347C60.4519 65.1004 60.5965 64.414 61.1322 64.0339C63.5153 62.3529 69.7825 57.9308 72.4356 56.0598C72.7438 55.8423 73.1392 55.7557 73.5198 55.8232C73.9003 55.8908 74.2341 56.102 74.4297 56.4103C76.5385 59.6794 82.3316 68.6524 84.2194 71.5794C84.5638 72.1136 84.4192 72.8 83.8814 73.1801" fill="white"/>
<path d="M89.2365 62.5641C89.7935 62.1966 90.4759 61.7489 91.0626 61.3645C91.4028 61.1407 91.828 61.0583 92.2382 61.1365C92.6485 61.2146 93.0036 61.4469 93.214 61.7764C95.6248 65.5121 102.606 76.3309 104.796 79.7224C105.174 80.3095 105.017 81.0634 104.424 81.4815C100.174 84.4803 84.1599 95.7805 81.4153 97.717C81.156 97.9007 80.835 98.0021 80.5054 98.0021H58.9723C58.4387 98.0021 57.9455 97.7423 57.6818 97.3179C57.4182 96.8976 57.4204 96.3781 57.6925 95.9579C58.866 94.1396 60.5114 91.5865 61.2831 90.3912C61.551 89.9752 62.0378 89.7217 62.565 89.7217H78.7728C79.1661 89.7217 79.5445 89.5781 79.823 89.3247C80.1015 89.0713 80.2567 88.7271 80.2567 88.366V85.2511C80.2567 84.8329 80.4693 84.4359 80.8328 84.1804C83.0671 82.6008 91.1838 76.8715 94.0771 74.8272C94.6703 74.4091 94.8276 73.6552 94.4492 73.0681C93.1247 71.0176 90.1676 66.435 88.8241 64.3549C88.4372 63.7509 88.6157 62.978 89.2365 62.5683" fill="white"/>
<path d="M51.334 54.5836C51.5763 54.2056 52.0206 53.9754 52.4989 53.9754C52.9773 53.9754 53.4237 54.2056 53.6661 54.5836C54.6801 56.1548 56.1193 58.3848 56.9995 59.7469C57.1972 60.0532 57.5288 60.2664 57.9093 60.3319C58.2899 60.3995 58.6853 60.3129 58.9935 60.0975C61.6467 58.2243 67.9138 53.8065 70.2969 52.1255C70.8348 51.7453 70.9815 51.059 70.6349 50.5247C67.9691 46.3941 57.2418 29.77 53.6661 24.2308C53.4237 23.8527 52.9794 23.6226 52.4989 23.6226C52.0185 23.6226 51.5763 23.8549 51.334 24.2308C47.7582 29.77 37.0309 46.3941 34.3651 50.5247C34.0207 51.059 34.1652 51.7453 34.7052 52.1255C37.0883 53.8065 43.3555 58.2243 46.0086 60.0975C46.3168 60.3129 46.7101 60.3995 47.0928 60.3319C47.4755 60.2664 47.8071 60.0532 48.0027 59.7469C48.8807 58.3848 50.322 56.1548 51.3361 54.5836" fill="white"/>
<path d="M20.7806 71.5772C20.4341 72.1136 20.5808 72.7978 21.1165 73.1779C23.4996 74.861 29.7668 79.281 32.4178 81.1542C32.7239 81.3717 33.1193 81.4562 33.502 81.3886C33.8825 81.3231 34.2163 81.1098 34.4118 80.8036C36.5207 77.5346 42.3138 68.5594 44.2016 65.6304C44.546 65.0961 44.4014 64.4098 43.8636 64.0296C41.4804 62.3487 35.2176 57.9265 32.5623 56.0555C32.2541 55.838 31.8608 55.7514 31.4781 55.819C31.0976 55.8866 30.7659 56.0977 30.5682 56.4061C28.4572 59.6751 22.6663 68.6481 20.7785 71.5751" fill="white"/>
<path d="M0.206223 79.7204C-0.174312 80.3074 -0.0148702 81.0613 0.578254 81.4795C4.82791 84.4782 20.8423 95.7784 23.5889 97.715C23.8483 97.8987 24.1693 97.9979 24.4988 97.9979H46.032C46.5656 97.9979 47.0567 97.7382 47.3224 97.3137C47.5881 96.8935 47.5839 96.3719 47.3139 95.9537C46.1404 94.1355 44.4928 91.5823 43.7211 90.3849C43.4533 89.971 42.9664 89.7176 42.4392 89.7176H26.2314C25.8381 89.7176 25.4597 89.574 25.1812 89.3206C24.9006 89.0672 24.7454 88.7208 24.7454 88.3618V85.2469C24.7454 84.8267 24.5328 84.4297 24.1693 84.1762C21.935 82.5966 13.8183 76.8652 10.925 74.821C10.334 74.4028 10.1745 73.6489 10.5529 73.0619C11.8774 71.0092 14.8345 66.4287 16.1781 64.3465C16.5671 63.7446 16.3885 62.9696 15.7678 62.5599C15.2108 62.1924 14.5284 61.7469 13.9437 61.3604C13.6036 61.1365 13.1763 61.0542 12.7681 61.1323C12.36 61.2105 12.0049 61.4428 11.7923 61.7722C9.38158 65.508 2.40014 76.3267 0.2126 79.7182" fill="white"/>
<path d="M53.7808 0.669439C57.4161 6.30371 67.6757 22.2013 69.9057 25.6562C70.1736 26.0701 70.6604 26.3235 71.1877 26.3235H75.6584C76.1856 26.3235 76.6725 26.577 76.9403 26.993C78.9961 30.1797 87.8079 43.8346 90.3186 47.7245C90.7012 48.3179 90.5375 49.076 89.9359 49.4921C88.401 50.5522 85.5523 52.5267 83.8729 53.6882C83.5327 53.9226 83.1033 54.0134 82.6866 53.9374C82.2699 53.8635 81.9085 53.6291 81.6938 53.2954C77.4867 46.7742 58.8596 17.9101 53.783 10.0458C53.5151 9.6319 53.0283 9.37637 52.5011 9.37637C51.9738 9.37637 51.487 9.62979 51.2191 10.0458C46.1425 17.9101 27.5154 46.7763 23.3083 53.2954C23.0915 53.6291 22.7322 53.8635 22.3134 53.9374C21.8967 54.0134 21.4651 53.9226 21.1271 53.6882C19.4477 52.5267 16.5969 50.5543 15.0641 49.4921C14.4625 49.076 14.2988 48.3179 14.6814 47.7245C17.1921 43.8324 26.0039 30.1797 28.0597 26.993C28.3275 26.5791 28.8144 26.3235 29.3437 26.3235H33.8145C34.3417 26.3235 34.8285 26.0701 35.0964 25.6562C37.3264 22.2013 47.5839 6.3016 51.2191 0.669439C51.487 0.255527 51.9738 0 52.5011 0C53.0283 0 53.5151 0.253416 53.783 0.669439" fill="white"/>
</g>
<defs>
<clipPath id="clip0_1448_58947">
<rect width="105" height="98" fill="white"/>
</clipPath>
</defs>
</svg>
