<svg width="32" height="23" viewBox="0 0 32 23" fill="none" xmlns="http://www.w3.org/2000/svg">
<path d="M16.102 0.333984H16.28C17.924 0.339984 26.254 0.399985 28.5 1.00398C29.179 1.18832 29.7977 1.54763 30.2943 2.046C30.7909 2.54437 31.1481 3.16435 31.33 3.84398C31.532 4.60398 31.674 5.60998 31.77 6.64798L31.79 6.85598L31.834 7.37598L31.85 7.58398C31.98 9.41198 31.996 11.124 31.998 11.498V11.648C31.996 12.036 31.978 13.864 31.834 15.768L31.818 15.978L31.8 16.186C31.7 17.33 31.552 18.466 31.33 19.302C31.1486 19.9819 30.7917 20.6022 30.295 21.1006C29.7983 21.5991 29.1793 21.9582 28.5 22.142C26.18 22.766 17.362 22.81 16.14 22.812H15.856C15.238 22.812 12.682 22.8 10.002 22.708L9.662 22.696L9.488 22.688L9.146 22.674L8.804 22.66C6.584 22.562 4.47 22.404 3.496 22.14C2.81698 21.9564 2.19813 21.5976 1.70145 21.0995C1.20477 20.6014 0.847694 19.9815 0.666 19.302C0.444 18.468 0.296 17.33 0.196 16.186L0.18 15.976L0.164 15.768C0.0652952 14.4128 0.0105997 13.0547 0 11.696L0 11.45C0.004 11.02 0.02 9.53398 0.128 7.89398L0.142 7.68798L0.148 7.58398L0.164 7.37598L0.208 6.85598L0.228 6.64798C0.324 5.60998 0.466 4.60198 0.668 3.84398C0.849387 3.16408 1.20632 2.54381 1.70303 2.04535C2.19973 1.54689 2.81874 1.18777 3.498 1.00398C4.472 0.743985 6.586 0.583984 8.806 0.483984L9.146 0.469984L9.49 0.457985L9.662 0.451985L10.004 0.437985C11.9074 0.376734 13.8116 0.34273 15.716 0.335984H16.102V0.333984ZM12.8 6.75398V16.39L21.114 11.574L12.8 6.75398Z" fill="white"/>
</svg>
