<svg width="32" height="32" viewBox="0 0 32 32" fill="none" xmlns="http://www.w3.org/2000/svg">
<path d="M29.9454 7.99992C28.9187 8.46659 27.8121 8.77325 26.6654 8.91992C27.8387 8.21325 28.7454 7.09325 29.1721 5.74659C28.0654 6.41325 26.8387 6.87992 25.5454 7.14659C24.4921 5.99992 23.0121 5.33325 21.3321 5.33325C18.1987 5.33325 15.6387 7.89325 15.6387 11.0533C15.6387 11.5066 15.6921 11.9466 15.7854 12.3599C11.0387 12.1199 6.81208 9.83992 3.99874 6.38659C3.50541 7.22659 3.22541 8.21325 3.22541 9.25325C3.22541 11.2399 4.22541 12.9999 5.77208 13.9999C4.82541 13.9999 3.94541 13.7333 3.17208 13.3333V13.3733C3.17208 16.1466 5.14541 18.4666 7.75874 18.9866C6.91971 19.2162 6.03887 19.2481 5.18541 19.0799C5.54755 20.2166 6.25679 21.2111 7.21343 21.9238C8.17007 22.6365 9.32601 23.0315 10.5187 23.0533C8.49692 24.6538 5.99074 25.519 3.41208 25.5066C2.95874 25.5066 2.50541 25.4799 2.05208 25.4266C4.58541 27.0532 7.59874 27.9999 10.8254 27.9999C21.3321 27.9999 27.1054 19.2799 27.1054 11.7199C27.1054 11.4666 27.1054 11.2266 27.0921 10.9733C28.2121 10.1733 29.1721 9.15992 29.9454 7.99992Z" fill="white"/>
</svg>
